<svg width="720" height="860" viewBox="0 0 720 860" fill="none" xmlns="http://www.w3.org/2000/svg">
  <rect width="720" height="860" rx="40" fill="#F7F2EA" />
  <rect x="36" y="36" width="648" height="788" rx="32" fill="url(#paint0_linear_1_2)" />
  <circle cx="360" cy="278" r="118" fill="#F7F2EA" fill-opacity="0.86" />
  <path d="M207 636C207 543.216 282.216 468 375 468H405C497.784 468 573 543.216 573 636V690H207V636Z" fill="#FFFDF8" fill-opacity="0.92" />
  <path d="M253 260C253 197.039 304.039 146 367 146H377C439.961 146 491 197.039 491 260V308H253V260Z" fill="#123C2F" fill-opacity="0.2" />
  <rect x="96" y="96" width="168" height="44" rx="22" fill="#C8A75D" />
  <text x="180" y="124" text-anchor="middle" fill="#123C2F" font-family="Inter, sans-serif" font-size="18" font-weight="700">Nickie Nicole</text>
  <text x="360" y="760" text-anchor="middle" fill="#FFFDF8" font-family="Playfair Display, serif" font-size="34" font-weight="700">Academy Founder</text>
  <defs>
    <linearGradient id="paint0_linear_1_2" x1="84" y1="100" x2="648" y2="786" gradientUnits="userSpaceOnUse">
      <stop stop-color="#123C2F" />
      <stop offset="1" stop-color="#0B2E24" />
    </linearGradient>
  </defs>
</svg>
