<svg width="720" height="560" viewBox="0 0 720 560" fill="none" xmlns="http://www.w3.org/2000/svg">
  <rect width="720" height="560" rx="36" fill="#F7F2EA" />
  <rect x="42" y="42" width="636" height="476" rx="30" fill="#FFFDF8" />
  <rect x="94" y="98" width="224" height="312" rx="30" fill="#123C2F" />
  <rect x="124" y="132" width="164" height="28" rx="14" fill="#FFFDF8" fill-opacity="0.18" />
  <rect x="124" y="182" width="128" height="18" rx="9" fill="#FFFDF8" fill-opacity="0.16" />
  <rect x="124" y="218" width="150" height="18" rx="9" fill="#FFFDF8" fill-opacity="0.14" />
  <rect x="350" y="124" width="252" height="28" rx="14" fill="#123C2F" fill-opacity="0.16" />
  <rect x="350" y="176" width="206" height="22" rx="11" fill="#123C2F" fill-opacity="0.12" />
  <rect x="350" y="224" width="230" height="22" rx="11" fill="#123C2F" fill-opacity="0.12" />
  <rect x="350" y="298" width="132" height="38" rx="19" fill="#C8A75D" />
  <rect x="350" y="374" width="236" height="18" rx="9" fill="#123C2F" fill-opacity="0.12" />
  <rect x="350" y="408" width="190" height="18" rx="9" fill="#123C2F" fill-opacity="0.1" />
</svg>
